<svg width="60" height="60" viewBox="0 0 60 60" fill="none" xmlns="http://www.w3.org/2000/svg">
<g filter="url(#filter0_d_993_2048)">
<path fill-rule="evenodd" clip-rule="evenodd" d="M34.9195 7.36077H16.4402V44.3194H43.3191V15.7603H34.9194L34.9195 7.36077ZM36.5996 8.03259L42.6474 14.0804H36.5996V8.03259ZM14.7598 5.68066H36.5996L44.9993 14.0804V46H14.7599L14.7598 5.68066ZM26.5216 24.8782L27.7095 26.0661L25.3337 28.4418L27.7095 30.8176L26.5216 32.0055L22.9579 28.4417L26.5216 24.8782ZM33.2416 24.8782L32.0537 26.0661L34.4295 28.4418L32.0537 30.8176L33.2416 32.0055L36.8054 28.4417L33.2416 24.8782ZM29.7837 24.1599L31.4381 24.4517L29.9795 32.7238L28.3251 32.4324L29.7837 24.1599Z" fill="#F5F5F5"/>
</g>
<defs>
<filter id="filter0_d_993_2048" x="0" y="0" width="60" height="60" filterUnits="userSpaceOnUse" color-interpolation-filters="sRGB">
<feFlood flood-opacity="0" result="BackgroundImageFix"/>
<feColorMatrix in="SourceAlpha" type="matrix" values="0 0 0 0 0 0 0 0 0 0 0 0 0 0 0 0 0 0 127 0" result="hardAlpha"/>
<feOffset dy="4"/>
<feGaussianBlur stdDeviation="2"/>
<feComposite in2="hardAlpha" operator="out"/>
<feColorMatrix type="matrix" values="0 0 0 0 0 0 0 0 0 0 0 0 0 0 0 0 0 0 0.25 0"/>
<feBlend mode="normal" in2="BackgroundImageFix" result="effect1_dropShadow_993_2048"/>
<feBlend mode="normal" in="SourceGraphic" in2="effect1_dropShadow_993_2048" result="shape"/>
</filter>
</defs>
</svg>
