<svg id="Layer_247" data-name="Layer 247" xmlns="http://www.w3.org/2000/svg" viewBox="0 0 67.71 59.76"><defs><style>.cls-1{fill:none;stroke:#fff;stroke-linecap:round;stroke-linejoin:round;}</style></defs><title>Video</title><rect class="cls-1" x="0.5" y="0.5" width="66.71" height="58.76"/><circle class="cls-1" cx="33.86" cy="29.88" r="12.28"/><line class="cls-1" x1="11.22" y1="8.53" x2="11.22" y2="11.5"/><line class="cls-1" x1="11.22" y1="20.81" x2="11.22" y2="23.78"/><line class="cls-1" x1="11.22" y1="34.3" x2="11.22" y2="37.27"/><line class="cls-1" x1="11.22" y1="48.27" x2="11.22" y2="51.24"/><line class="cls-1" x1="56.5" y1="8.53" x2="56.5" y2="11.5"/><line class="cls-1" x1="56.5" y1="20.81" x2="56.5" y2="23.78"/><line class="cls-1" x1="56.5" y1="34.3" x2="56.5" y2="37.27"/><line class="cls-1" x1="56.5" y1="48.27" x2="56.5" y2="51.24"/><path class="cls-1" d="M370.62,4564.55a1.12,1.12,0,0,1,0,1.94l-3.74,2.16-3.75,2.16a1.12,1.12,0,0,1-1.68-1v-8.64a1.12,1.12,0,0,1,1.68-1l3.75,2.16Z" transform="translate(-331.62 -4535.64)"/></svg>