<svg width="68" height="68" viewBox="0 0 68 68" fill="none" xmlns="http://www.w3.org/2000/svg">
<path d="M15.6468 8V27.0354C16.3869 26.1843 17.466 25.5836 18.7618 25.5836H40.6648V13.7905H36.6284V13.7909C36.161 13.7909 35.7815 13.4076 35.7811 12.9342L35.7614 8.00044H15.6472L15.6468 8ZM37.4591 9.50207L37.4713 12.0731H39.6439L37.4591 9.50207ZM18.7613 10.3373H33.5375V12.0515H18.7613V10.3373ZM18.7613 13.3849H33.5375V15.0991H18.7613V13.3849ZM18.7613 16.4369H37.5458V18.1499H18.7613V16.4369ZM11.0669 19.2567C9.50783 19.2567 8.0973 20.8773 8.0973 23.114V50.9978L11.5579 38.9954L13.9493 30.6998V19.2568L11.0669 19.2567ZM42.3627 19.2567V25.5829H52.2056V23.1136C52.2056 20.8768 50.7952 19.2563 49.2361 19.2563H42.3626L42.3627 19.2567ZM18.7617 19.4845H37.5462V21.2019H18.7617V19.4845ZM18.7617 22.5357H37.5462V24.2499H18.7617V22.5357ZM18.7617 27.3011C17.9427 27.3011 17.4139 27.6055 16.9221 28.171C16.4302 28.7366 16.0338 29.5901 15.7591 30.5429L8.06471 57.2403C7.87002 57.916 8.12225 58.5139 8.71891 59.0675C9.31558 59.6211 10.2484 60 11.0669 60H49.2363C49.8275 60 50.2688 59.8421 50.6543 59.5421L50.6547 59.5425C50.6697 59.5286 50.685 59.5154 50.7012 59.5022C50.7237 59.4839 50.7442 59.4624 50.7662 59.4432C50.8533 59.367 50.9392 59.2841 51.0224 59.1931C51.0492 59.1632 51.0776 59.1361 51.104 59.105C51.126 59.0791 51.1454 59.046 51.167 59.0188C51.2699 58.8892 51.3704 58.7512 51.4638 58.5988C51.502 58.5366 51.5367 58.4668 51.5729 58.401C51.6447 58.2722 51.7148 58.1418 51.7802 58.0014C51.8193 57.9168 51.8547 57.8263 51.8918 57.7377C51.9473 57.6045 52.0017 57.4709 52.0518 57.3301C52.118 57.1439 52.183 56.9556 52.2394 56.7594L59.9349 30.062C60.1296 29.3863 59.8805 28.7884 59.2838 28.2348C58.6872 27.6812 57.75 27.3011 56.9311 27.3011L18.7617 27.3011Z" fill="white"/>
</svg>
