<svg xmlns="http://www.w3.org/2000/svg" width="11" height="11" viewBox="0 0 11 11">
  <metadata><?xpacket begin="﻿" id="W5M0MpCehiHzreSzNTczkc9d"?>
<x:xmpmeta xmlns:x="adobe:ns:meta/" x:xmptk="Adobe XMP Core 5.6-c142 79.160924, 2017/07/13-01:06:39        ">
   <rdf:RDF xmlns:rdf="http://www.w3.org/1999/02/22-rdf-syntax-ns#">
      <rdf:Description rdf:about=""/>
   </rdf:RDF>
</x:xmpmeta>
                                                                                                    
                                                                                                    
                                                                                                    
                                                                                                    
                                                                                                    
                                                                                                    
                                                                                                    
                                                                                                    
                                                                                                    
                                                                                                    
                                                                                                    
                                                                                                    
                                                                                                    
                                                                                                    
                                                                                                    
                                                                                                    
                                                                                                    
                                                                                                    
                                                                                                    
                                                                                                    
                           
<?xpacket end="w"?></metadata>
<defs>
    <style>
      .cls-1 {
        fill: #dedede;
        fill-rule: evenodd;
      }
    </style>
  </defs>
  <path id="O" class="cls-1" d="M5.758,10.458a5.28,5.28,0,0,0,2.6-.644,4.744,4.744,0,0,0,1.827-1.778,4.943,4.943,0,0,0,.665-2.548,4.944,4.944,0,0,0-.665-2.548A4.745,4.745,0,0,0,8.362,1.162a5.283,5.283,0,0,0-2.6-.644,5.235,5.235,0,0,0-2.6.651A4.793,4.793,0,0,0,1.327,2.954,4.916,4.916,0,0,0,.662,5.488a4.915,4.915,0,0,0,.665,2.534A4.793,4.793,0,0,0,3.154,9.807a5.235,5.235,0,0,0,2.6.651h0Zm0-.658a4.493,4.493,0,0,1-2.233-.56A4.109,4.109,0,0,1,1.95,7.693a4.3,4.3,0,0,1-.574-2.2,4.3,4.3,0,0,1,.574-2.2A4.111,4.111,0,0,1,3.525,1.736a4.5,4.5,0,0,1,2.233-.56,4.458,4.458,0,0,1,2.226.56A4.127,4.127,0,0,1,9.552,3.283a4.306,4.306,0,0,1,.574,2.205,4.306,4.306,0,0,1-.574,2.205A4.126,4.126,0,0,1,7.984,9.24a4.456,4.456,0,0,1-2.226.56h0Z"/>
</svg>
