<svg id="Layer_1" data-name="Layer 1" xmlns="http://www.w3.org/2000/svg" viewBox="0 0 63.94 63.94"> <defs> <style>.loop-disabled-icon .cls-1 { fill:none; stroke:#eb5054; stroke-miterlimit:10; stroke-width:2px; } .loop-disabled-icon .cls-2 { fill:#ef5054; } .loop-enabled-icon .cls-1 { fill:#eb5054; stroke:#eb5054; stroke-miterlimit:10; stroke-width:2px; } .loop-enabled-icon .cls-2 { fill:#fff; } </style> </defs> <title>loop disabled</title> <circle class="cls-1" cx="31.97" cy="31.97" r="30.97"/> <path class="cls-2" d="M136.52,229.68h-3.13l1.18-1.1a2,2,0,0,0-2.74-2.92L127,230.23a2,2,0,0,0-.63,1.45,2,2,0,0,0,.63,1.46l4.86,4.56a2,2,0,0,0,1.37.55,2,2,0,0,0,1.37-3.46l-1.18-1.11h3.13a5.31,5.31,0,0,1,0,10.61H120.16a5.31,5.31,0,1,1,0-10.61,2,2,0,1,0,0-4,9.31,9.31,0,1,0,0,18.61h16.36a9.31,9.31,0,0,0,0-18.61Z" transform="translate(-96.37 -204.74)"/> </svg>
