<svg id="Layer_1" data-name="Layer 1" xmlns="http://www.w3.org/2000/svg" viewBox="0 0 63.94 63.94"> <defs> <style>.linkedin-disabled-icon .cls-1{fill:none;stroke:#eb5054;stroke-miterlimit:10;stroke-width:2px;} .linkedin-disabled-icon .cls-2{fill:#ef5054;} .linkedin-enabled-icon .cls-1{fill:#eb5054;stroke:#eb5054;stroke-miterlimit:10;stroke-width:2px;} .linkedin-enabled-icon .cls-2{fill:#fff;} </style> </defs> <title>linkd outline</title> <circle class="cls-1" cx="31.97" cy="31.97" r="30.97"/> <path class="cls-2" d="M140.54,64V75.67H133.8V64.82c0-2.72-1-4.58-3.42-4.58a3.67,3.67,0,0,0-3.45,2.46,4.6,4.6,0,0,0-.23,1.65V75.67H120s.09-18.37,0-20.27h6.74v2.87l0,.07h0v-.07a6.71,6.71,0,0,1,6.08-3.35c4.43,0,7.76,2.9,7.76,9.12ZM112.91,45.63a3.51,3.51,0,1,0-.09,7h.05a3.51,3.51,0,1,0,0-7Zm-3.41,30h6.74V55.4H109.5Z" transform="translate(-92.85 -28.68)"/> </svg>
